<svg width="49" height="44" viewBox="0 0 49 44" fill="none" xmlns="http://www.w3.org/2000/svg">
<path d="M15.6 42.35C15.0667 42.35 14.8 41.9 14.8 41C14.7667 40.1667 14.7833 38.85 14.85 37.05C14.9167 35.25 14.95 33.2333 14.95 31C14.95 29.2 14.9 27.35 14.8 25.45C14.7333 23.5167 14.5667 21.6667 14.3 19.9C14.0667 18.1 13.7167 16.5 13.25 15.1C12.7833 13.7 12.1667 12.5833 11.4 11.75C10.6667 10.9167 9.76667 10.5 8.7 10.5C7.56667 10.5 6.56667 10.7833 5.7 11.35C4.86667 11.8833 4.08333 12.55 3.35 13.35C2.65 14.15 1.93333 14.9333 1.2 15.7C1 15.9333 0.866667 16 0.8 15.9C0.7 15.8 0.666667 15.6833 0.7 15.55C1 14.8833 1.5 14.1333 2.2 13.3C2.93333 12.4667 3.75 11.6833 4.65 10.95C5.58333 10.1833 6.53333 9.56667 7.5 9.1C8.5 8.6 9.4 8.35 10.2 8.35C11.4667 8.35 12.55 8.93333 13.45 10.1C14.35 11.2667 15.0667 12.8333 15.6 14.8C16.1667 16.7667 16.5667 18.9833 16.8 21.45C17.0667 23.8833 17.2 26.4 17.2 29C17.2 32.9 16.9667 36.5667 16.5 40C17.1 37.9667 17.8167 35.7167 18.65 33.25C19.4833 30.75 20.45 28.1667 21.55 25.5C22.65 22.8 23.8667 20.15 25.2 17.55C26.5667 14.95 28.05 12.5333 29.65 10.3C31.2833 8.03333 33.05 6.08333 34.95 4.45C36.8833 2.78333 38.9333 1.56667 41.1 0.799999C41.9667 0.533332 42.75 0.399998 43.45 0.399998C44.6167 0.399998 45.6333 0.716665 46.5 1.35C47.4 1.95 47.95 2.86666 48.15 4.1V4.2C48.15 4.5 48.0833 4.8 47.95 5.1C47.85 5.4 47.7333 5.55 47.6 5.55C47.4 5.55 47.3 5.2 47.3 4.5C47.3 3.7 47.0833 3.01667 46.65 2.45C46.2167 1.85 45.5 1.55 44.5 1.55C43.9 1.55 43.1667 1.7 42.3 2C39.7667 2.86667 37.3 4.48333 34.9 6.85C32.5333 9.21666 30.2833 12.1333 28.15 15.6C26.0167 19.0667 24.0333 22.9333 22.2 27.2C20.3667 31.4333 18.7333 35.9 17.3 40.6C17.1667 41.0667 16.9167 41.4667 16.55 41.8C16.2167 42.1667 15.9 42.35 15.6 42.35ZM25.0168 43.2C24.8835 43.2333 24.7168 43.1167 24.5168 42.85C24.3501 42.6167 24.2168 42.35 24.1168 42.05C24.0501 41.7833 24.0835 41.6333 24.2168 41.6C25.0835 41.2667 25.9335 40.9167 26.7668 40.55C27.6001 40.1833 28.4335 39.8333 29.2668 39.5C29.1335 38.9667 29.0335 38.4167 28.9668 37.85C28.9001 37.2833 28.8668 36.7 28.8668 36.1C28.8668 34.8 28.9668 33.4833 29.1668 32.15C29.3668 30.7833 29.6001 29.4833 29.8668 28.25C30.1668 26.9833 30.4001 25.8833 30.5668 24.95C30.7335 24.25 30.8835 23.55 31.0168 22.85C31.1501 22.1167 31.2835 21.3833 31.4168 20.65C31.4501 20.55 31.4668 20.45 31.4668 20.35C31.4668 20.25 31.4835 20.1667 31.5168 20.1C31.3168 20.2667 31.0001 20.6333 30.5668 21.2C30.1335 21.7667 29.7001 22.45 29.2668 23.25C29.2001 23.3833 29.0168 23.7333 28.7168 24.3C28.4168 24.8333 28.1168 25.35 27.8168 25.85C27.5168 26.35 27.3001 26.6333 27.1668 26.7C27.1001 26.7333 27.0335 26.75 26.9668 26.75C26.8001 26.75 26.7168 26.65 26.7168 26.45C26.7168 26.3833 26.7335 26.3 26.7668 26.2C26.8001 26.1 26.8335 26.0333 26.8668 26C27.6001 24.5667 28.2668 23.2333 28.8668 22C29.5001 20.7667 30.2168 19.3833 31.0168 17.85C31.1835 17.55 31.3668 17.1667 31.5668 16.7C31.8001 16.2 32.0668 15.75 32.3668 15.35C32.7001 14.95 33.0335 14.75 33.3668 14.75C33.6668 14.75 33.9001 14.9 34.0668 15.2C34.2335 15.5 34.3168 15.8 34.3168 16.1C34.3168 16.2 34.2835 16.35 34.2168 16.55C33.3501 18.45 32.6501 20.4333 32.1168 22.5C31.5835 24.5667 31.1835 26.6167 30.9168 28.65C30.6835 30.65 30.5668 32.5 30.5668 34.2C30.5668 35.0667 30.5835 35.8833 30.6168 36.65C30.6835 37.3833 30.7835 38.0667 30.9168 38.7V38.8C31.7501 38.4667 32.5835 38.15 33.4168 37.85C34.2835 37.55 35.1335 37.2833 35.9668 37.05H36.1168C36.2835 37.05 36.3668 37.1333 36.3668 37.3C36.4001 37.4667 36.3335 37.5833 36.1668 37.65C35.3668 37.8833 34.5668 38.2 33.7668 38.6C32.9668 38.9667 32.1501 39.3833 31.3168 39.85C31.4501 40.0833 31.5335 40.3 31.5668 40.5C31.6335 40.6667 31.5835 40.7833 31.4168 40.85C31.1168 40.95 30.8501 41 30.6168 41C30.2835 41 30.0168 40.9 29.8168 40.7C28.9835 41.1667 28.1668 41.6167 27.3668 42.05C26.5668 42.5167 25.7835 42.9 25.0168 43.2Z" fill="url(#paint0_linear_29_38)"/>
<defs>
<linearGradient id="paint0_linear_29_38" x1="6.27027" y1="2.84375" x2="19.6852" y2="35.3403" gradientUnits="userSpaceOnUse">
<stop stop-color="#FF0B0B"/>
<stop offset="1" stop-color="#6D6D6D"/>
</linearGradient>
</defs>
</svg>
